<?xml version="1.0" encoding="utf-8"?>
<!-- Generator: Adobe Illustrator 15.0.2, SVG Export Plug-In . SVG Version: 6.00 Build 0)  -->
<!DOCTYPE svg PUBLIC "-//W3C//DTD SVG 1.1//EN" "http://www.w3.org/Graphics/SVG/1.1/DTD/svg11.dtd">
<svg version="1.1" id="Layer_1" xmlns="http://www.w3.org/2000/svg" xmlns:xlink="http://www.w3.org/1999/xlink" x="0px" y="0px"
	 width="161.898px" height="36.485px" viewBox="0 0 161.898 36.485" enable-background="new 0 0 161.898 36.485"
	 xml:space="preserve">
<g>
	<g>
		<path fill="#929497" d="M2.701,30.413C0.9,28.624,0,25.856,0,22.108c0-3.685,0.875-6.454,2.621-8.306
			c1.748-1.853,4.422-2.779,8.023-2.779c2.146,0,4.42,0.516,6.82,1.547v5.4c-2.105-1.473-4.084-2.21-5.938-2.21
			c-1.621,0-2.857,0.474-3.711,1.421c-0.852,0.947-1.279,2.601-1.279,4.958c0,2.316,0.438,3.932,1.312,4.848
			c0.873,0.916,2.205,1.373,3.994,1.373c0.715,0,1.559-0.174,2.527-0.52c0.967-0.348,2-0.891,3.094-1.627v5.4
			c-0.801,0.441-1.852,0.801-3.158,1.074c-1.305,0.273-2.525,0.41-3.662,0.41C7.148,33.098,4.502,32.204,2.701,30.413z"/>
		<path fill="#929497" d="M23.023,30.35c-1.916-1.832-2.873-4.58-2.873-8.242c0-3.58,0.932-6.311,2.795-8.196
			c1.863-1.884,4.479-2.827,7.848-2.827c3.264,0,5.854,0.916,7.77,2.748c1.914,1.832,2.873,4.579,2.873,8.244
			c0,3.578-0.932,6.311-2.795,8.195c-1.863,1.883-4.479,2.826-7.848,2.826C27.529,33.098,24.939,32.182,23.023,30.35z M33.84,26.67
			c0.705-0.916,1.059-2.457,1.059-4.627c0-2.146-0.354-3.667-1.059-4.563c-0.705-0.895-1.721-1.342-3.047-1.342
			s-2.342,0.458-3.047,1.374c-0.707,0.915-1.059,2.458-1.059,4.626c0,2.146,0.352,3.668,1.059,4.562
			c0.705,0.896,1.721,1.344,3.047,1.344S33.135,27.586,33.84,26.67z"/>
	</g>
	<g>
		<path fill="#929497" d="M113.105,32.624l-3.633-6.727h-2.211v6.727h-6.316V11.56h10.959c2.568,0,4.574,0.579,6.018,1.736
			c1.441,1.158,2.162,2.885,2.162,5.18c0,1.285-0.352,2.515-1.059,3.695c-0.705,1.18-1.709,2-3.016,2.463l5.242,7.99H113.105z
			 M112.615,20.813c0.389-0.422,0.584-1.105,0.584-2.053c0-0.8-0.199-1.41-0.6-1.832c-0.4-0.421-0.895-0.632-1.484-0.632h-3.854
			v5.148h3.854C111.725,21.444,112.225,21.235,112.615,20.813z"/>
		<path fill="#929497" d="M126.258,30.493c-1.863-1.738-2.795-4.533-2.795-8.385c0-3.769,0.943-6.559,2.826-8.37
			c1.885-1.811,4.438-2.716,7.66-2.716c2.631,0,5.273,0.526,7.926,1.579v5.621c-1.559-0.842-2.857-1.458-3.9-1.848
			c-1.041-0.389-2.111-0.584-3.205-0.584c-1.58,0-2.779,0.458-3.6,1.374c-0.822,0.916-1.232,2.552-1.232,4.912
			c0,2.273,0.41,3.895,1.232,4.863c0.82,0.969,1.904,1.451,3.252,1.451c1.012,0,1.717-0.135,2.115-0.41v-2.746h-2.811v-4.738h9.127
			v10.074c-1.389,0.822-2.836,1.447-4.342,1.879s-3.016,0.648-4.531,0.648C130.695,33.098,128.121,32.229,126.258,30.493z"/>
		<path fill="#929497" d="M146.959,11.56h14.939v4.736h-8.592v3.412h7.359v4.736h-7.391v3.443h8.623v4.736h-14.939V11.56z"/>
	</g>
	<g>
		<polygon fill="#929497" points="72.309,27.971 60.277,5.665 53.322,3.597 72.309,36.485 91.299,3.597 84.344,5.665 		"/>
	</g>
	<g>
		<g>
			<polygon fill="#8BC53F" points="85.543,0 72.311,5.524 59.078,0 72.309,23.918 			"/>
		</g>
	</g>
</g>
<polygon fill="#929497" points="57.637,14.07 57.637,21.918 49.709,11.56 44.594,11.56 44.594,32.624 50.342,32.624 50.342,21.854 
	58.963,32.624 63.385,32.624 63.385,24.027 "/>
<polygon fill="#929497" points="96.998,16.296 96.998,11.56 88.433,11.56 82.061,22.596 82.061,32.624 96.998,32.624 96.998,27.887 
	88.377,27.887 88.377,24.444 95.766,24.444 95.766,19.708 88.408,19.708 88.408,16.296 "/>
</svg>
